<?xml version="1.0" standalone="no"?>
<!DOCTYPE svg PUBLIC "-//W3C//DTD SVG 20010904//EN"
 "http://www.w3.org/TR/2001/REC-SVG-20010904/DTD/svg10.dtd">
<svg version="1.0" xmlns="http://www.w3.org/2000/svg"
 width="75.000000pt" height="75.000000pt" viewBox="0 0 75.000000 75.000000"
 preserveAspectRatio="xMidYMid meet">
<metadata>
Created by potrace 1.14, written by Peter Selinger 2001-2017
</metadata>
<g transform="translate(0.000000,75.000000) scale(0.100000,-0.100000)"
fill="#000000" stroke="none">
<path d="M316 609 c-54 -13 -86 -34 -121 -80 -19 -26 -41 -43 -66 -49 -72 -20
-131 -117 -117 -196 8 -48 47 -100 94 -124 48 -26 52 -26 264 -25 200 1 218 3
257 23 179 93 131 362 -70 388 -23 3 -54 14 -69 25 -55 39 -112 51 -172 38z"/>
</g>
</svg>
